# File created by Blade
# Date/Time:  Wed Jan 21 15:23:43 2015
# Frame Rate: 120.000 fps
#------------------------------------------------------
:FULLY-SPECIFIED
:DEGREES
443
root 33.648798 27.239296 -19.576879 -167.838059 -2.812450 -169.971344
Spine 2.351403 -1.213417 12.843197
Head -2.037000 3.832666 -3.441410
LeftShoulder -8.241862 -22.837105 -2.861974
LeftArm -24.127858 25.898106 -84.185184
LeftForeArm 21.103113 -0.000000 34.605002
LeftHand -3.688941 -0.000000 -2.428775
LeftHandThumb1 -26.253704 0.000000 33.147579
RightShoulder -3.593291 -11.558281 5.424776
RightArm 21.661245 -23.314136 56.692625
RightForeArm -34.919077 -0.000000 50.525684
RightHand 0.079571 -0.000000 6.382585
RightHandThumb1 -24.326973 -0.000000 -32.862282
LeftUpLeg -7.841892 33.389320 44.796116
LeftLeg -3.990279 -0.000000 0.000000
LeftFoot -8.847322 10.346330 -16.735226
LeftToeBase 41.676762 -0.000000 -0.000000
RightUpLeg -53.062273 -14.714448 18.390712
RightLeg 78.226812 -0.000000 -0.000000
RightFoot -60.882552 -29.603568 30.065082
RightToeBase 22.338342 -0.000000 -0.000000
444
root 33.654662 27.226493 -19.567648 -167.873585 -2.907924 -170.019297
Spine 2.330862 -1.226103 12.878023
Head -2.112685 3.868983 -3.526497
LeftShoulder -8.270208 -22.879245 -2.893096
LeftArm -24.170006 25.868243 -84.230249
LeftForeArm 21.195756 -0.000000 34.619126
LeftHand -3.802252 -0.000000 -2.210979
LeftHandThumb1 -26.253704 0.000000 33.147579
RightShoulder -3.576591 -11.561639 5.402462
RightArm 21.679801 -23.296135 56.665201
RightForeArm -34.932791 -0.000000 50.540871
RightHand 0.051893 -0.000000 6.488615
RightHandThumb1 -24.326973 -0.000000 -32.862282
LeftUpLeg -7.933786 33.356669 44.739208
LeftLeg -3.981204 -0.000000 0.000000
LeftFoot -8.813778 10.273566 -16.747276
LeftToeBase 41.671426 -0.000000 -0.000000
RightUpLeg -53.109277 -14.798045 18.376011
RightLeg 78.313993 -0.000000 -0.000000
RightFoot -60.929798 -29.555674 30.154577
RightToeBase 22.250640 -0.000000 -0.000000
445
root 33.659827 27.212156 -19.558178 -167.923207 -2.996192 -170.067496
Spine 2.342397 -1.239184 12.892496
Head -2.250327 3.865625 -3.560767
LeftShoulder -8.305380 -22.876426 -2.899799
LeftArm -24.147731 25.822823 -84.259680
LeftForeArm 21.319704 0.000000 34.638220
LeftHand -3.826900 -0.000000 -2.118195
LeftHandThumb1 -26.253704 0.000000 33.147579
RightShoulder -3.554710 -11.495906 5.402462
RightArm 21.635018 -23.298905 56.632602
RightForeArm -35.005501 -0.000000 50.550817
RightHand 0.093567 -0.000000 6.530726
RightHandThumb1 -24.326973 -0.000000 -32.862282
LeftUpLeg -8.011418 33.348163 44.688413
LeftLeg -3.970907 -0.000000 0.000000
LeftFoot -8.776623 10.172799 -16.737807
LeftToeBase 41.739531 -0.000000 -0.000000
RightUpLeg -53.143005 -14.899743 18.353528
RightLeg 78.405899 -0.000000 -0.000000
RightFoot -61.012372 -29.750987 30.042322
RightToeBase 22.661050 -0.000000 -0.000000
446
root 33.663248 27.197567 -19.549937 -167.992438 -3.085444 -170.134561
Spine 2.381233 -1.266856 12.889588
Head -2.362527 3.906190 -3.591640
LeftShoulder -8.347171 -22.853238 -2.915541
LeftArm -24.111441 25.779049 -84.264547
LeftForeArm 21.391131 -0.000000 34.693407
LeftHand -3.856694 -0.000000 -2.020948
LeftHandThumb1 -26.253704 0.000000 33.147579
RightShoulder -3.557558 -11.499140 5.405310
RightArm 21.700302 -23.280458 56.556629
RightForeArm -35.014622 -0.000000 50.515472
RightHand 0.119096 0.000000 6.601294
RightHandThumb1 -24.326973 -0.000000 -32.862282
LeftUpLeg -8.066012 33.295232 44.631148
LeftLeg -3.963129 -0.000000 0.000000
LeftFoot -8.764728 10.086967 -16.749251
LeftToeBase 41.860855 -0.000000 -0.000000
RightUpLeg -53.170632 -15.051448 18.321444
RightLeg 78.517447 -0.000000 -0.000000
RightFoot -60.997671 -29.540826 30.144667
RightToeBase 22.324408 -0.000000 -0.000000
447
root 33.666125 27.181510 -19.541391 -168.061501 -3.157642 -170.220345
Spine 2.420579 -1.251964 12.848185
Head -2.474995 3.944776 -3.566809
LeftShoulder -8.346333 -22.892721 -2.914812
LeftArm -24.136545 25.711191 -84.277554
LeftForeArm 21.576173 0.000000 34.746157
LeftHand -3.888279 -0.000000 -2.002088
LeftHandThumb1 -26.253704 0.000000 33.147579
RightShoulder -3.562016 -11.511408 5.423527
RightArm 21.720481 -23.206871 56.517580
RightForeArm -35.093525 0.000000 50.471246
RightHand 0.208436 0.000000 6.622094
RightHandThumb1 -24.326973 -0.000000 -32.862282
LeftUpLeg -8.102628 33.243644 44.560628
LeftLeg -3.962138 -0.000000 0.000000
LeftFoot -8.742697 10.003033 -16.755924
LeftToeBase 41.879352 -0.000000 -0.000000
RightUpLeg -53.195960 -15.203104 18.260047
RightLeg 78.631063 -0.000000 -0.000000
RightFoot -61.080838 -29.614871 30.068229
RightToeBase 22.590195 -0.000000 -0.000000
448
root 33.672227 27.166235 -19.533903 -168.106998 -3.251930 -170.268007
Spine 2.418236 -1.266646 12.850436
Head -2.573082 3.952102 -3.560211
LeftShoulder -8.354842 -22.909899 -2.913116
LeftArm -24.166463 25.639446 -84.294811
LeftForeArm 21.632930 -0.000000 34.791243
LeftHand -3.893865 0.000000 -1.900930
LeftHandThumb1 -26.253704 0.000000 33.147579
RightShoulder -3.558970 -11.482281 5.459547
RightArm 21.703256 -23.169940 56.448322
RightForeArm -35.142715 0.000000 50.405329
RightHand 0.303424 -0.000000 6.624073
RightHandThumb1 -24.326973 -0.000000 -32.862282
LeftUpLeg -8.180089 33.192772 44.521450
LeftLeg -3.944608 -0.000000 0.000000
LeftFoot -8.735646 9.909039 -16.753417
LeftToeBase 42.027686 -0.000000 -0.000000
RightUpLeg -53.234316 -15.380729 18.259699
RightLeg 78.721665 -0.000000 -0.000000
RightFoot -61.128560 -29.557359 30.047246
RightToeBase 22.655110 -0.000000 -0.000000
449
root 33.677756 27.150470 -19.525648 -168.156692 -3.335639 -170.322575
Spine 2.417121 -1.261367 12.823576
Head -2.658815 3.948712 -3.488669
LeftShoulder -8.334060 -22.921514 -2.895757
LeftArm -24.207755 25.513651 -84.304853
LeftForeArm 21.741956 -0.000000 34.866245
LeftHand -3.907577 -0.000000 -1.828327
LeftHandThumb1 -26.253704 0.000000 33.147579
RightShoulder -3.573177 -11.564109 5.520803
RightArm 21.779724 -23.069780 56.327782
RightForeArm -35.094842 -0.000000 50.363897
RightHand 0.310615 -0.000000 6.703269
RightHandThumb1 -24.326973 -0.000000 -32.862282
LeftUpLeg -8.247567 33.131739 44.480420
LeftLeg -3.919049 -0.000000 0.000000
LeftFoot -8.740577 9.825287 -16.722122
LeftToeBase 42.075266 -0.000000 -0.000000
RightUpLeg -53.271851 -15.557996 18.255483
RightLeg 78.818672 -0.000000 -0.000000
RightFoot -61.119339 -29.301045 30.135218
RightToeBase 22.183069 -0.000000 -0.000000
